<?xml version="1.0" encoding="UTF-8" standalone="no"?>
<!-- Created with Inkscape (http://www.inkscape.org/) -->

<svg
   xmlns:dc="http://purl.org/dc/elements/1.1/"
   xmlns:cc="http://creativecommons.org/ns#"
   xmlns:rdf="http://www.w3.org/1999/02/22-rdf-syntax-ns#"
   xmlns:svg="http://www.w3.org/2000/svg"
   xmlns="http://www.w3.org/2000/svg"
   xmlns:sodipodi="http://sodipodi.sourceforge.net/DTD/sodipodi-0.dtd"
   xmlns:inkscape="http://www.inkscape.org/namespaces/inkscape"
   version="1.1"
   id="svg2"
   xml:space="preserve"
   width="269.91867"
   height="269.91867"
   viewBox="0 0 269.91867 269.91867"
   sodipodi:docname="moc_logo.svg"
   inkscape:version="0.92.3 (2405546, 2018-03-11)"><metadata
     id="metadata8"><rdf:RDF><cc:Work
         rdf:about=""><dc:format>image/svg+xml</dc:format><dc:type
           rdf:resource="http://purl.org/dc/dcmitype/StillImage" /><dc:title></dc:title></cc:Work></rdf:RDF></metadata><defs
     id="defs6"><clipPath
       clipPathUnits="userSpaceOnUse"
       id="clipPath18"><path
         d="M 0,202.439 H 202.439 V 0 H 0 Z"
         id="path16"
         inkscape:connector-curvature="0" /></clipPath></defs><sodipodi:namedview
     pagecolor="#ffffff"
     bordercolor="#666666"
     borderopacity="1"
     objecttolerance="10"
     gridtolerance="10"
     guidetolerance="10"
     inkscape:pageopacity="0"
     inkscape:pageshadow="2"
     inkscape:window-width="682"
     inkscape:window-height="480"
     id="namedview4"
     showgrid="false"
     inkscape:zoom="0.87433744"
     inkscape:cx="134.95934"
     inkscape:cy="135.5312"
     inkscape:window-x="0"
     inkscape:window-y="27"
     inkscape:window-maximized="0"
     inkscape:current-layer="g10" /><g
     id="g10"
     inkscape:groupmode="layer"
     inkscape:label="logo"
     transform="matrix(1.3333333,0,0,-1.3333333,0,269.91867)"><g
       id="g12"><g
         id="g14"
         clip-path="url(#clipPath18)"><g
           id="g20"
           transform="translate(65.5086,74.9189)"><path
             d="m 0,0 c 0.018,-0.46 0.027,-0.92 0.027,-1.381 0,-13.828 -8.898,-25.031 -19.872,-25.031 -10.975,0 -19.873,11.203 -19.873,25.031 0,6.275 1.837,12.011 4.868,16.4"
             style="fill:none;stroke:#50ade5;stroke-width:5;stroke-linecap:round;stroke-linejoin:round;stroke-miterlimit:4;stroke-dasharray:none;stroke-opacity:1"
             id="path22"
             inkscape:connector-curvature="0" /></g><g
           id="g24"
           transform="translate(30.6587,89.9375)"><path
             d="m 0,0 c -1.961,4.501 -3.076,9.664 -3.076,15.153 0,17.443 11.233,31.586 25.088,31.586 2.835,0 5.572,-0.595 8.113,-1.706"
             style="fill:none;stroke:#50ade5;stroke-width:5;stroke-linecap:round;stroke-linejoin:round;stroke-miterlimit:4;stroke-dasharray:none;stroke-opacity:1"
             id="path26"
             inkscape:connector-curvature="0" /></g><g
           id="g28"
           transform="translate(60.7834,134.9706)"><path
             d="m 0,0 c 0.223,11.561 7.738,20.844 16.975,20.844 5.857,0 11.028,-3.738 14.077,-9.429 0.597,-1.122 1.114,-2.312 1.542,-3.569"
             style="fill:none;stroke:#50ade5;stroke-width:5;stroke-linecap:round;stroke-linejoin:round;stroke-miterlimit:4;stroke-dasharray:none;stroke-opacity:1"
             id="path30"
             inkscape:connector-curvature="0" /></g><g
           id="g32"
           transform="translate(150.4719,58.7182)"><path
             d="m 0,0 c -3.554,-5.108 -8.931,-8.07 -14.71,-7.425 -6.783,0.757 -12.317,6.284 -14.705,13.727"
             style="fill:none;stroke:#50ade5;stroke-width:5;stroke-linecap:round;stroke-linejoin:miter;stroke-miterlimit:4;stroke-dasharray:none;stroke-opacity:1"
             id="path34"
             inkscape:connector-curvature="0" /></g><g
           id="g36"
           transform="translate(171.0436,108.0434)"><path
             d="m 0,0 c 4.913,-5.865 7.722,-14.399 7.078,-23.55 -1.122,-15.93 -12.287,-27.699 -24.94,-26.287 -0.922,0.103 -1.822,0.277 -2.71,0.512"
             style="fill:none;stroke:#50ade5;stroke-width:5;stroke-linecap:round;stroke-linejoin:miter;stroke-miterlimit:4;stroke-dasharray:none;stroke-opacity:1"
             id="path38"
             inkscape:connector-curvature="0" /></g><g
           id="g40"
           transform="translate(133.4631,122.2129)"><path
             d="M 0,0 C 2.11,11.348 8,33.149 24.405,30.712 35.941,28.996 44.523,16.559 43.498,1.998 43.052,-4.335 40.864,-9.951 37.581,-14.17"
             style="fill:none;stroke:#50ade5;stroke-width:5;stroke-linecap:round;stroke-linejoin:miter;stroke-miterlimit:4;stroke-dasharray:none;stroke-opacity:1"
             id="path42"
             inkscape:connector-curvature="0" /></g><g
           id="g44"
           transform="translate(113.4821,84.8152)"><path
             d="M 0,0 7.574,-19.799"
             style="fill:none;stroke:#50ade5;stroke-width:5;stroke-linecap:round;stroke-linejoin:miter;stroke-miterlimit:4;stroke-dasharray:none;stroke-opacity:1"
             id="path46"
             inkscape:connector-curvature="0" /></g><g
           id="g48"
           transform="translate(93.3789,142.8136)"><path
             d="M 0,0 6.84,-17.88"
             style="fill:none;stroke:#50ade5;stroke-width:5;stroke-linecap:round;stroke-linejoin:miter;stroke-miterlimit:4;stroke-dasharray:none;stroke-opacity:1"
             id="path50"
             inkscape:connector-curvature="0" /></g><g
           id="g52"
           transform="translate(83.1249,73.1401)"><path
             d="M 0,0 V 36.211 H -0.118 L -5.326,7.451 h -3.728 l -5.208,28.76 h -0.119 L -15.229,0 h -4.775 l -0.294,52.156 h 8.225 L -7.16,24.141 h 0.118 l 4.853,28.015 H 6.273 V 2.251 L 6.273,0 H 4.036 3.104 Z"
             style="fill:#50ade5;fill-opacity:1;fill-rule:nonzero;stroke:none"
             id="path54"
             inkscape:connector-curvature="0" /></g><g
           id="g56"
           transform="translate(101.768,112.7788)"><path
             d="m 0,0 v -27.121 c 0,-3.875 1.361,-5.961 3.847,-5.961 2.485,0 3.846,2.086 3.846,5.961 V 0 C 7.693,3.875 6.332,5.96 3.847,5.96 1.361,5.96 0,3.875 0,0 m 13.966,0.074 v -27.27 c 0,-8.196 -3.846,-13.188 -10.119,-13.188 -6.273,0 -10.12,4.992 -10.12,13.188 v 27.27 c 0,8.197 3.847,13.189 10.12,13.189 6.273,0 10.119,-4.992 10.119,-13.189"
             style="fill:#50ade5;fill-opacity:1;fill-rule:nonzero;stroke:none"
             id="path58"
             inkscape:connector-curvature="0" /></g><g
           id="g60"
           transform="translate(140.5911,113.5239)"><path
             d="m 0,0 v -4.694 l -6.036,-0.373 v 4.247 c 0,4.173 -1.243,6.035 -3.551,6.035 -2.308,0 -3.551,-1.862 -3.551,-5.29 v -28.462 c 0,-3.427 1.243,-5.29 3.551,-5.29 2.308,0 3.551,1.863 3.551,6.035 v 5.812 L 0,-22.353 v -6.258 c 0,-7.898 -3.61,-12.518 -9.765,-12.518 -6.095,0 -9.646,4.62 -9.646,12.518 V 0 c 0,7.898 3.551,12.518 9.646,12.518 C -3.61,12.518 0,7.898 0,0"
             style="fill:#50ade5;fill-opacity:1;fill-rule:nonzero;stroke:none"
             id="path62"
             inkscape:connector-curvature="0" /></g></g></g></g></svg>